<svg width="33" height="32" viewBox="0 0 33 32" fill="none" xmlns="http://www.w3.org/2000/svg">
<g clip-path="url(#clip0_1_265)">
<path d="M16.5 32C25.3366 32 32.5 24.8366 32.5 16C32.5 7.16344 25.3366 0 16.5 0C7.66344 0 0.5 7.16344 0.5 16C0.5 24.8366 7.66344 32 16.5 32Z" fill="#A3A3A3" fill-opacity="0.2"/>
<path fill-rule="evenodd" clip-rule="evenodd" d="M5.5 4C5.5 2.93913 5.92143 1.92172 6.67157 1.17157C7.42172 0.421427 8.43913 0 9.5 0L23.5 0C24.5609 0 25.5783 0.421427 26.3284 1.17157C27.0786 1.92172 27.5 2.93913 27.5 4V17H25.5V4C25.5 3.46957 25.2893 2.96086 24.9142 2.58579C24.5391 2.21071 24.0304 2 23.5 2H22.118C21.9323 2.0001 21.7504 2.05188 21.5925 2.14955C21.4346 2.24722 21.307 2.38692 21.224 2.553L20.776 3.447C20.693 3.61308 20.5654 3.75278 20.4075 3.85045C20.2496 3.94812 20.0677 3.9999 19.882 4H13.118C12.9323 3.9999 12.7504 3.94812 12.5925 3.85045C12.4346 3.75278 12.307 3.61308 12.224 3.447L11.776 2.553C11.693 2.38692 11.5654 2.24722 11.4075 2.14955C11.2496 2.05188 11.0677 2.0001 10.882 2H9.5C8.96957 2 8.46086 2.21071 8.08579 2.58579C7.71071 2.96086 7.5 3.46957 7.5 4V28C7.5 28.5304 7.71071 29.0391 8.08579 29.4142C8.46086 29.7893 8.96957 30 9.5 30H13.5V32H9.5C8.43913 32 7.42172 31.5786 6.67157 30.8284C5.92143 30.0783 5.5 29.0609 5.5 28V4Z" fill="#A3A3A3"/>
<path d="M7.5 22C7.5 17.306 11 14 15.5 14" stroke="url(#paint0_linear_1_265)" stroke-width="2" stroke-linecap="round" stroke-linejoin="round"/>
<path d="M21.5 20L21.717 14.487C21.7291 14.1191 21.599 13.7607 21.3537 13.4862C21.1084 13.2118 20.7668 13.0424 20.3999 13.0133C20.033 12.9842 19.6689 13.0976 19.3834 13.33C19.098 13.5624 18.913 13.8958 18.867 14.261L18 21.5L16.49 19.99C16.2943 19.7943 16.062 19.6391 15.8064 19.5331C15.5507 19.4272 15.2767 19.3727 15 19.3727C14.7233 19.3727 14.4493 19.4272 14.1936 19.5331C13.9379 19.6391 13.7057 19.7943 13.51 19.99C13.5071 19.9932 13.5051 19.9971 13.5042 20.0013C13.5033 20.0055 13.5036 20.0099 13.505 20.014L16.588 29.264C16.8533 30.0606 17.3627 30.7536 18.0438 31.2447C18.7249 31.7357 19.5433 32 20.383 32H25.5C26.5609 32 27.5783 31.5785 28.3284 30.8284C29.0786 30.0783 29.5 29.0608 29.5 28V23C29.5 22.2043 29.1839 21.4413 28.6213 20.8787C28.0587 20.316 27.2956 20 26.5 20H21.5Z" fill="#A3A3A3"/>
</g>
<defs>
<linearGradient id="paint0_linear_1_265" x1="14.5" y1="14.5" x2="7.5" y2="17" gradientUnits="userSpaceOnUse">
<stop stop-color="#737373"/>
<stop offset="1" stop-color="#D4D4D4" stop-opacity="0"/>
</linearGradient>
<clipPath id="clip0_1_265">
<rect width="32" height="32" fill="white" transform="translate(0.5)"/>
</clipPath>
</defs>
</svg>
