<svg width="33" height="33" viewBox="0 0 33 33" fill="none" xmlns="http://www.w3.org/2000/svg">
<g clip-path="url(#clip0_1_287)">
<path fill-rule="evenodd" clip-rule="evenodd" d="M9.32812 0.5C8.26726 0.5 7.24984 0.921427 6.4997 1.67157C5.74955 2.42172 5.32813 3.43913 5.32812 4.5V28.5C5.32813 29.5609 5.74955 30.5783 6.4997 31.3284C7.24984 32.0786 8.26726 32.5 9.32812 32.5H23.3281C24.389 32.5 25.4064 32.0786 26.1566 31.3284C26.9067 30.5783 27.3281 29.5609 27.3281 28.5V4.5C27.3281 3.43913 26.9067 2.42172 26.1566 1.67157C25.4064 0.921427 24.389 0.5 23.3281 0.5L9.32812 0.5ZM9.32812 2.5C8.79769 2.5 8.28898 2.71071 7.91391 3.08579C7.53884 3.46086 7.32812 3.96957 7.32812 4.5V28.5C7.32812 29.0304 7.53884 29.5391 7.91391 29.9142C8.28898 30.2893 8.79769 30.5 9.32812 30.5H23.3281C23.8586 30.5 24.3673 30.2893 24.7423 29.9142C25.1174 29.5391 25.3281 29.0304 25.3281 28.5V4.5C25.3281 3.96957 25.1174 3.46086 24.7423 3.08579C24.3673 2.71071 23.8586 2.5 23.3281 2.5H21.9461C21.7605 2.5001 21.5785 2.55188 21.4206 2.64955C21.2627 2.74722 21.1351 2.88692 21.0521 3.053L20.6041 3.947C20.5211 4.11308 20.3935 4.25278 20.2357 4.35045C20.0778 4.44812 19.8958 4.4999 19.7101 4.5H12.9461C12.7605 4.4999 12.5785 4.44812 12.4206 4.35045C12.2627 4.25278 12.1351 4.11308 12.0521 3.947L11.6041 3.053C11.5211 2.88692 11.3935 2.74722 11.2357 2.64955C11.0778 2.55188 10.8958 2.5001 10.7101 2.5H9.32812Z" fill="#737373"/>
<path fill-rule="evenodd" clip-rule="evenodd" d="M9.32812 13.5C9.32812 13.2348 9.43348 12.9804 9.62102 12.7929C9.80855 12.6054 10.0629 12.5 10.3281 12.5H22.3281C22.5933 12.5 22.8477 12.6054 23.0352 12.7929C23.2228 12.9804 23.3281 13.2348 23.3281 13.5V15.5C23.3281 15.7652 23.2228 16.0196 23.0352 16.2071C22.8477 16.3946 22.5933 16.5 22.3281 16.5H10.3281C10.0629 16.5 9.80855 16.3946 9.62102 16.2071C9.43348 16.0196 9.32812 15.7652 9.32812 15.5V13.5ZM9.32812 19.5C9.32812 19.2348 9.43348 18.9804 9.62102 18.7929C9.80855 18.6054 10.0629 18.5 10.3281 18.5H22.3281C22.5933 18.5 22.8477 18.6054 23.0352 18.7929C23.2228 18.9804 23.3281 19.2348 23.3281 19.5V21.5C23.3281 21.7652 23.2228 22.0196 23.0352 22.2071C22.8477 22.3946 22.5933 22.5 22.3281 22.5H10.3281C10.0629 22.5 9.80855 22.3946 9.62102 22.2071C9.43348 22.0196 9.32812 21.7652 9.32812 21.5V19.5ZM10.3281 24.5C10.0629 24.5 9.80855 24.6054 9.62102 24.7929C9.43348 24.9804 9.32812 25.2348 9.32812 25.5V27.5C9.32812 27.7652 9.43348 28.0196 9.62102 28.2071C9.80855 28.3946 10.0629 28.5 10.3281 28.5H22.3281C22.5933 28.5 22.8477 28.3946 23.0352 28.2071C23.2228 28.0196 23.3281 27.7652 23.3281 27.5V25.5C23.3281 25.2348 23.2228 24.9804 23.0352 24.7929C22.8477 24.6054 22.5933 24.5 22.3281 24.5H10.3281Z" fill="url(#paint0_linear_1_287)"/>
<path d="M22.3281 6.5H10.3281C9.77584 6.5 9.32812 6.94772 9.32812 7.5V9.5C9.32812 10.0523 9.77584 10.5 10.3281 10.5H22.3281C22.8804 10.5 23.3281 10.0523 23.3281 9.5V7.5C23.3281 6.94772 22.8804 6.5 22.3281 6.5Z" fill="#171717"/>
<path d="M16.3281 32.5C25.1647 32.5 32.3281 25.3366 32.3281 16.5C32.3281 7.66344 25.1647 0.5 16.3281 0.5C7.49157 0.5 0.328125 7.66344 0.328125 16.5C0.328125 25.3366 7.49157 32.5 16.3281 32.5Z" fill="#A3A3A3" fill-opacity="0.2"/>
</g>
<defs>
<linearGradient id="paint0_linear_1_287" x1="16.3281" y1="12.5" x2="16.3281" y2="28.5" gradientUnits="userSpaceOnUse">
<stop stop-color="#737373"/>
<stop offset="1" stop-color="#737373" stop-opacity="0"/>
</linearGradient>
<clipPath id="clip0_1_287">
<rect width="32" height="32" fill="white" transform="translate(0.328125 0.5)"/>
</clipPath>
</defs>
</svg>
