<svg width="33" height="33" viewBox="0 0 33 33" fill="none" xmlns="http://www.w3.org/2000/svg">
<g clip-path="url(#clip0_1_323)">
<path fill-rule="evenodd" clip-rule="evenodd" d="M9.98438 0.5C8.92351 0.5 7.90609 0.921427 7.15595 1.67157C6.4058 2.42172 5.98438 3.43913 5.98438 4.5V28.5C5.98438 29.5609 6.4058 30.5783 7.15595 31.3284C7.90609 32.0786 8.92351 32.5 9.98438 32.5H23.9844C25.0452 32.5 26.0627 32.0786 26.8128 31.3284C27.5629 30.5783 27.9844 29.5609 27.9844 28.5V4.5C27.9844 3.43913 27.5629 2.42172 26.8128 1.67157C26.0627 0.921427 25.0452 0.5 23.9844 0.5L9.98438 0.5ZM9.98438 2.5C9.45394 2.5 8.94523 2.71071 8.57016 3.08579C8.19509 3.46086 7.98438 3.96957 7.98438 4.5V28.5C7.98438 29.0304 8.19509 29.5391 8.57016 29.9142C8.94523 30.2893 9.45394 30.5 9.98438 30.5H23.9844C24.5148 30.5 25.0235 30.2893 25.3986 29.9142C25.7737 29.5391 25.9844 29.0304 25.9844 28.5V4.5C25.9844 3.96957 25.7737 3.46086 25.3986 3.08579C25.0235 2.71071 24.5148 2.5 23.9844 2.5H22.6024C22.4167 2.5001 22.2347 2.55188 22.0768 2.64955C21.919 2.74722 21.7914 2.88692 21.7084 3.053L21.2604 3.947C21.1774 4.11308 21.0498 4.25278 20.8919 4.35045C20.734 4.44812 20.552 4.4999 20.3664 4.5H13.6024C13.4167 4.4999 13.2347 4.44812 13.0768 4.35045C12.919 4.25278 12.7914 4.11308 12.7084 3.947L12.2604 3.053C12.1774 2.88692 12.0498 2.74722 11.8919 2.64955C11.734 2.55188 11.552 2.5001 11.3664 2.5H9.98438Z" fill="#737373"/>
<path fill-rule="evenodd" clip-rule="evenodd" d="M23.9844 14.338V26.5C23.9844 27.0305 23.7737 27.5392 23.3986 27.9142C23.0235 28.2893 22.5148 28.5 21.9844 28.5H11.9844C11.4539 28.5 10.9452 28.2893 10.5702 27.9142C10.1951 27.5392 9.98438 27.0305 9.98438 26.5V16.15L12.5544 19.362C12.7167 19.5646 12.9514 19.6961 13.209 19.7288C13.4665 19.7615 13.7266 19.6927 13.9344 19.537L16.3844 17.7C16.5016 17.6122 16.6366 17.5512 16.7799 17.5214C16.9233 17.4915 17.0714 17.4935 17.2139 17.5271C17.3564 17.5608 17.4898 17.6253 17.6046 17.7162C17.7194 17.8071 17.8129 17.9221 17.8784 18.053L19.7194 21.734C20.1184 22.531 21.2814 22.448 21.5624 21.604L23.9844 14.337V14.338Z" fill="#171717"/>
<path d="M10.9844 12.5H22.9844" stroke="#737373" stroke-width="2" stroke-linecap="square"/>
<path d="M16.9844 32.5C25.8209 32.5 32.9844 25.3366 32.9844 16.5C32.9844 7.66344 25.8209 0.5 16.9844 0.5C8.14782 0.5 0.984375 7.66344 0.984375 16.5C0.984375 25.3366 8.14782 32.5 16.9844 32.5Z" fill="#A3A3A3" fill-opacity="0.2"/>
</g>
<defs>
<clipPath id="clip0_1_323">
<rect width="32" height="32" fill="white" transform="translate(0.984375 0.5)"/>
</clipPath>
</defs>
</svg>
