<svg width="32" height="33" viewBox="0 0 32 33" fill="none" xmlns="http://www.w3.org/2000/svg">
<g clip-path="url(#clip0_1_279)">
<path fill-rule="evenodd" clip-rule="evenodd" d="M9 0.5C7.93913 0.5 6.92172 0.921427 6.17157 1.67157C5.42143 2.42172 5 3.43913 5 4.5V28.5C5 29.5609 5.42143 30.5783 6.17157 31.3284C6.92172 32.0786 7.93913 32.5 9 32.5H23C24.0609 32.5 25.0783 32.0786 25.8284 31.3284C26.5786 30.5783 27 29.5609 27 28.5V4.5C27 3.43913 26.5786 2.42172 25.8284 1.67157C25.0783 0.921427 24.0609 0.5 23 0.5L9 0.5ZM9 2.5C8.46957 2.5 7.96086 2.71071 7.58579 3.08579C7.21071 3.46086 7 3.96957 7 4.5V28.5C7 29.0304 7.21071 29.5391 7.58579 29.9142C7.96086 30.2893 8.46957 30.5 9 30.5H23C23.5304 30.5 24.0391 30.2893 24.4142 29.9142C24.7893 29.5391 25 29.0304 25 28.5V4.5C25 3.96957 24.7893 3.46086 24.4142 3.08579C24.0391 2.71071 23.5304 2.5 23 2.5H21.618C21.4323 2.5001 21.2504 2.55188 21.0925 2.64955C20.9346 2.74722 20.807 2.88692 20.724 3.053L20.276 3.947C20.193 4.11308 20.0654 4.25278 19.9075 4.35045C19.7496 4.44812 19.5677 4.4999 19.382 4.5H12.618C12.4323 4.4999 12.2504 4.44812 12.0925 4.35045C11.9346 4.25278 11.807 4.11308 11.724 3.947L11.276 3.053C11.193 2.88692 11.0654 2.74722 10.9075 2.64955C10.7496 2.55188 10.5677 2.5001 10.382 2.5H9Z" fill="#737373"/>
<path d="M12 25.5L20 17.5L12 25.5ZM20 17.5H14H20ZM20 17.5V23.5V17.5Z" fill="black"/>
<path d="M12 25.5L20 17.5M20 17.5H14M20 17.5V23.5" stroke="#171717" stroke-width="2" stroke-linecap="round"/>
<path d="M16 32.5C24.8366 32.5 32 25.3366 32 16.5C32 7.66344 24.8366 0.5 16 0.5C7.16344 0.5 0 7.66344 0 16.5C0 25.3366 7.16344 32.5 16 32.5Z" fill="#A3A3A3" fill-opacity="0.2"/>
</g>
<defs>
<clipPath id="clip0_1_279">
<rect width="32" height="32" fill="white" transform="translate(0 0.5)"/>
</clipPath>
</defs>
</svg>
