<svg width="33" height="33" viewBox="0 0 33 33" fill="none" xmlns="http://www.w3.org/2000/svg">
<g clip-path="url(#clip0_1_304)">
<path fill-rule="evenodd" clip-rule="evenodd" d="M9.65625 0.5C8.59538 0.5 7.57797 0.921427 6.82782 1.67157C6.07768 2.42172 5.65625 3.43913 5.65625 4.5V28.5C5.65625 29.5609 6.07768 30.5783 6.82782 31.3284C7.57797 32.0786 8.59538 32.5 9.65625 32.5H23.6562C24.7171 32.5 25.7345 32.0786 26.4847 31.3284C27.2348 30.5783 27.6562 29.5609 27.6562 28.5V4.5C27.6562 3.43913 27.2348 2.42172 26.4847 1.67157C25.7345 0.921427 24.7171 0.5 23.6562 0.5L9.65625 0.5ZM9.65625 2.5C9.12582 2.5 8.61711 2.71071 8.24204 3.08579C7.86696 3.46086 7.65625 3.96957 7.65625 4.5V28.5C7.65625 29.0304 7.86696 29.5391 8.24204 29.9142C8.61711 30.2893 9.12582 30.5 9.65625 30.5H23.6562C24.1867 30.5 24.6954 30.2893 25.0705 29.9142C25.4455 29.5391 25.6562 29.0304 25.6562 28.5V4.5C25.6562 3.96957 25.4455 3.46086 25.0705 3.08579C24.6954 2.71071 24.1867 2.5 23.6562 2.5H22.2743C22.0886 2.5001 21.9066 2.55188 21.7487 2.64955C21.5908 2.74722 21.4632 2.88692 21.3803 3.053L20.9322 3.947C20.8493 4.11308 20.7217 4.25278 20.5638 4.35045C20.4059 4.44812 20.2239 4.4999 20.0382 4.5H13.2743C13.0886 4.4999 12.9066 4.44812 12.7487 4.35045C12.5908 4.25278 12.4632 4.11308 12.3802 3.947L11.9323 3.053C11.8493 2.88692 11.7217 2.74722 11.5638 2.64955C11.4059 2.55188 11.2239 2.5001 11.0382 2.5H9.65625Z" fill="#737373"/>
<path d="M11.6562 16.5C12.7608 16.5 13.6562 15.6046 13.6562 14.5C13.6562 13.3954 12.7608 12.5 11.6562 12.5C10.5517 12.5 9.65625 13.3954 9.65625 14.5C9.65625 15.6046 10.5517 16.5 11.6562 16.5Z" fill="#171717"/>
<path d="M11.6562 22.5C12.7608 22.5 13.6562 21.6046 13.6562 20.5C13.6562 19.3954 12.7608 18.5 11.6562 18.5C10.5517 18.5 9.65625 19.3954 9.65625 20.5C9.65625 21.6046 10.5517 22.5 11.6562 22.5Z" fill="#171717"/>
<path d="M11.6562 28.5C12.7608 28.5 13.6562 27.6046 13.6562 26.5C13.6562 25.3954 12.7608 24.5 11.6562 24.5C10.5517 24.5 9.65625 25.3954 9.65625 26.5C9.65625 27.6046 10.5517 28.5 11.6562 28.5Z" fill="#171717"/>
<path d="M16.6562 14.5H22.6562M16.6562 20.5H22.6562M16.6562 26.5H22.6562" stroke="#737373" stroke-width="2" stroke-linecap="square"/>
<path d="M16.6562 32.5C25.4928 32.5 32.6562 25.3366 32.6562 16.5C32.6562 7.66344 25.4928 0.5 16.6562 0.5C7.81969 0.5 0.65625 7.66344 0.65625 16.5C0.65625 25.3366 7.81969 32.5 16.6562 32.5Z" fill="#A3A3A3" fill-opacity="0.2"/>
</g>
<defs>
<clipPath id="clip0_1_304">
<rect width="32" height="32" fill="white" transform="translate(0.65625 0.5)"/>
</clipPath>
</defs>
</svg>
